<svg width="32" height="32" viewBox="0 0 32 32" fill="none" xmlns="http://www.w3.org/2000/svg">
<g clip-path="url(#clip0_1_1180)">
<rect width="32" height="32" rx="8" fill="#303030"/>
<g clip-path="url(#clip1_1_1180)">
<g clip-path="url(#clip2_1_1180)">
<path d="M16 6C10.4783 6 6 10.5907 6 16.2528C6 20.7828 8.865 24.6259 12.8392 25.9819C13.3383 26.0767 13.5 25.7589 13.5 25.4889V23.5801C10.7183 24.2004 10.1392 22.3703 10.1392 22.3703C9.68417 21.1853 9.02833 20.87 9.02833 20.87C8.12083 20.2335 9.0975 20.2471 9.0975 20.2471C10.1017 20.3189 10.63 21.304 10.63 21.304C11.5217 22.871 12.9692 22.4182 13.54 22.1559C13.6292 21.4937 13.8883 21.0409 14.175 20.7854C11.9542 20.5248 9.61917 19.6456 9.61917 15.7179C9.61917 14.5978 10.01 13.6836 10.6492 12.9659C10.5458 12.707 10.2033 11.6638 10.7467 10.2523C10.7467 10.2523 11.5867 9.97723 13.4975 11.3033C14.295 11.076 15.15 10.9624 16 10.9581C16.85 10.9624 17.7058 11.076 18.505 11.3033C20.4142 9.97723 21.2525 10.2523 21.2525 10.2523C21.7967 11.6647 21.4542 12.7079 21.3508 12.9659C21.9925 13.6836 22.38 14.5987 22.38 15.7179C22.38 19.6559 20.0408 20.5231 17.8142 20.7769C18.1725 21.0947 18.5 21.7184 18.5 22.6753V25.4889C18.5 25.7614 18.66 26.0818 19.1675 25.981C23.1383 24.6234 26 20.7811 26 16.2528C26 10.5907 21.5225 6 16 6Z" fill="white"/>
</g>
</g>
<rect x="0.5" y="0.5" width="31" height="31" rx="7.5" stroke="#606060"/>
</g>
<defs>
<clipPath id="clip0_1_1180">
<rect width="32" height="32" rx="8" fill="white"/>
</clipPath>
<clipPath id="clip1_1_1180">
<rect width="20" height="20" fill="white" transform="translate(6 6)"/>
</clipPath>
<clipPath id="clip2_1_1180">
<rect width="20" height="20" fill="white" transform="translate(6 6)"/>
</clipPath>
</defs>
</svg>
