<svg width="32" height="32" viewBox="0 0 32 32" fill="none" xmlns="http://www.w3.org/2000/svg">
<g clip-path="url(#clip0_1_1203)">
<rect width="32" height="32" rx="8" fill="#303030"/>
<g clip-path="url(#clip1_1_1203)">
<g clip-path="url(#clip2_1_1203)">
<path d="M10.3016 18.7391C10.3 19.2956 10.0783 19.8288 9.68478 20.2223C9.2913 20.6158 8.75808 20.8375 8.20161 20.8391C7.64497 20.838 7.11138 20.6167 6.71749 20.2233C6.32361 19.83 6.10146 19.2967 6.09961 18.7401C6.09961 17.5831 7.04461 16.6391 8.20061 16.6391H10.3016V18.7391ZM11.3596 18.7391C11.3596 17.5821 12.3046 16.6381 13.4616 16.6381C14.6176 16.6381 15.5616 17.5821 15.5616 18.7381V24.0001C15.5606 24.5568 15.339 25.0905 14.9454 25.4842C14.5519 25.878 14.0183 26.0998 13.4616 26.1011C12.905 26.0998 12.3715 25.8781 11.9778 25.4846C11.5841 25.0911 11.3622 24.5577 11.3606 24.0011V18.7401L11.3596 18.7391ZM13.4616 10.3021C12.905 10.3008 12.3715 10.0791 11.9778 9.68563C11.5841 9.29211 11.3622 8.75874 11.3606 8.2021C11.3611 7.64529 11.5824 7.1114 11.9758 6.7174C12.3692 6.3234 12.9028 6.10142 13.4596 6.1001C14.6166 6.1001 15.5606 7.0451 15.5606 8.2011V10.3021H13.4616ZM13.4616 11.3601C14.6176 11.3601 15.5616 12.3051 15.5616 13.4621C15.56 14.0186 15.3383 14.5518 14.9448 14.9453C14.5513 15.3388 14.0181 15.5605 13.4616 15.5621H8.20161C7.64497 15.561 7.11138 15.3397 6.71749 14.9463C6.32361 14.553 6.10146 14.0197 6.09961 13.4631C6.09961 12.3061 7.04461 11.3621 8.20061 11.3621H13.4606L13.4616 11.3601ZM21.8976 13.4621C21.8976 12.3051 22.8426 11.3611 23.9986 11.3611C25.1556 11.3611 26.0996 12.3051 26.0996 13.4611C26.0986 14.0179 25.877 14.5516 25.4835 14.9456C25.0899 15.3395 24.5564 15.5615 23.9996 15.5631H21.8976V13.4621ZM20.8396 13.4621C20.8396 14.6181 19.8946 15.5621 18.7376 15.5621C17.5816 15.5621 16.6376 14.6181 16.6376 13.4621V8.2021C16.6376 7.0451 17.5816 6.1001 18.7376 6.1001C19.8946 6.1001 20.8386 7.0451 20.8386 8.2011V13.4611L20.8396 13.4621ZM18.7376 21.8981C19.8946 21.8981 20.8386 22.8431 20.8386 23.9981C20.8376 24.5549 20.616 25.0886 20.2225 25.4826C19.8289 25.8765 19.2954 26.0985 18.7386 26.1001C18.1817 26.0988 17.648 25.877 17.2541 25.4833C16.8602 25.0896 16.6382 24.556 16.6366 23.9991V21.8981H18.7376ZM18.7376 20.8401C17.5816 20.8401 16.6376 19.8951 16.6376 18.7391C16.6376 17.5821 17.5816 16.6381 18.7376 16.6381H23.9996C25.1556 16.6381 26.1006 17.5821 26.1006 18.7381C26.0996 19.2951 25.8779 19.829 25.4841 20.2229C25.0904 20.6169 24.5566 20.8388 23.9996 20.8401H18.7396H18.7376Z" fill="white"/>
</g>
</g>
<rect x="0.5" y="0.5" width="31" height="31" rx="7.5" stroke="#606060"/>
</g>
<defs>
<clipPath id="clip0_1_1203">
<rect width="32" height="32" rx="8" fill="white"/>
</clipPath>
<clipPath id="clip1_1_1203">
<rect width="21" height="21" fill="white" transform="translate(5.5 5.5)"/>
</clipPath>
<clipPath id="clip2_1_1203">
<rect width="21" height="21" fill="white" transform="translate(5.5 5.5)"/>
</clipPath>
</defs>
</svg>
