<svg width="108" height="26" viewBox="0 0 108 26" fill="none" xmlns="http://www.w3.org/2000/svg">
<g clip-path="url(#clip0_1_1234)">
<g clip-path="url(#clip1_1_1234)">
<path fill-rule="evenodd" clip-rule="evenodd" d="M0.118164 24.632C0.118164 25.387 0.730164 26 1.48616 26H6.96016C7.71616 26 8.32816 25.387 8.32816 24.632V21.793C8.32816 21.038 8.94116 20.425 9.69716 20.425H10.4832C11.2382 20.425 11.8512 19.812 11.8512 19.056V15.636C11.8512 14.88 11.2382 14.267 10.4832 14.267H7.06216C6.30616 14.267 5.69316 14.88 5.69316 15.635V16.421C5.69316 17.177 5.08016 17.79 4.32516 17.79H1.48616C0.731164 17.79 0.118164 18.402 0.118164 19.158V24.632ZM8.32816 4.89C8.32816 5.646 8.94116 6.258 9.69716 6.258H10.4832C11.2382 6.258 11.8512 6.871 11.8512 7.627V10.364C11.8512 11.119 11.2382 11.732 10.4832 11.732H7.74616C7.56643 11.7321 7.38843 11.6968 7.22235 11.6282C7.05626 11.5595 6.90533 11.4587 6.7782 11.3317C6.65106 11.2046 6.5502 11.0538 6.48139 10.8877C6.41258 10.7217 6.37716 10.5437 6.37716 10.364V9.578C6.37716 8.822 5.76516 8.21 5.00916 8.21H1.48616C1.12335 8.21 0.775392 8.06587 0.518842 7.80932C0.262292 7.55277 0.118164 7.20482 0.118164 6.842V1.37C0.118164 0.613 0.730164 0 1.48616 0H6.96016C7.71616 0 8.32816 0.613 8.32816 1.369V4.89ZM19.8582 9.578C19.8582 8.822 20.4712 8.21 21.2272 8.21H24.7502C25.5052 8.21 26.1182 7.597 26.1182 6.841V1.37C26.1182 1.007 25.9741 0.658838 25.7176 0.40197C25.4611 0.145103 25.1132 0.000529927 24.7502 0L19.2762 0C18.9132 0.000264867 18.5651 0.144583 18.3084 0.401263C18.0517 0.657943 17.9074 1.006 17.9072 1.369V4.89C17.9072 5.646 17.2952 6.258 16.5392 6.258H15.7532C14.9982 6.258 14.3852 6.871 14.3852 7.627V10.364C14.3852 11.119 14.9982 11.732 15.7532 11.732H18.4902C19.2462 11.732 19.8592 11.119 19.8592 10.364L19.8582 9.578ZM26.1182 24.631C26.1182 25.386 25.5052 25.999 24.7492 25.999H19.2762C19.0964 25.9991 18.9184 25.9638 18.7523 25.8952C18.5863 25.8265 18.4353 25.7257 18.3082 25.5987C18.1811 25.4716 18.0802 25.3208 18.0114 25.1547C17.9426 24.9887 17.9072 24.8107 17.9072 24.631V21.108C17.9072 20.353 17.2942 19.74 16.5392 19.74H15.7532C15.5734 19.74 15.3955 19.7046 15.2294 19.6358C15.0634 19.567 14.9125 19.4661 14.7855 19.339C14.6584 19.2118 14.5577 19.0609 14.489 18.8948C14.4203 18.7287 14.385 18.5507 14.3852 18.371V15.635C14.3852 14.879 14.9982 14.266 15.7532 14.266H18.4902C18.8532 14.2663 19.2012 14.4106 19.4579 14.6673C19.7146 14.9239 19.8589 15.272 19.8592 15.635V16.42C19.8592 17.176 20.4712 17.789 21.2272 17.789H24.7492C25.5052 17.789 26.1182 18.401 26.1182 19.157V24.631Z" fill="#131313"/>
<path d="M36.4745 20.962C36.3395 20.962 36.2725 20.872 36.2725 20.76V5.41396C36.2725 5.27896 36.3395 5.18896 36.4755 5.18896H44.4295C46.8625 5.18896 48.8685 6.94696 48.8685 9.85296C48.8685 12.58 47.4265 14.135 45.4885 14.541L49.0035 20.692C49.0935 20.85 49.0265 20.962 48.8465 20.962H46.4345C46.3796 20.9617 46.3259 20.9471 46.2785 20.9195C46.2311 20.892 46.1918 20.8525 46.1645 20.805L42.6495 14.653H38.9765V20.737C38.9765 20.872 38.8865 20.963 38.7505 20.963L36.4745 20.962ZM38.9765 12.467H42.9195C44.6325 12.467 46.1645 12.017 46.1645 9.89896C46.1645 7.80296 44.5415 7.37496 42.9195 7.37496H38.9765V12.467ZM51.3245 20.962C51.1895 20.962 51.0765 20.872 51.0765 20.737V9.92096C51.0765 9.78596 51.1895 9.69596 51.3245 9.69596H53.4205C53.5555 9.69596 53.6675 9.78596 53.6675 9.92096V20.737C53.6675 20.872 53.5555 20.963 53.4205 20.963L51.3245 20.962ZM50.9185 6.66196C50.9185 5.85196 51.5725 5.19796 52.3835 5.19796C53.1945 5.19796 53.8485 5.85096 53.8485 6.66196C53.8485 7.47396 53.1945 8.12696 52.3835 8.12696C52.191 8.12736 52.0003 8.08974 51.8224 8.01625C51.6444 7.94277 51.4828 7.83487 51.3467 7.69876C51.2106 7.56264 51.1027 7.40098 51.0292 7.22306C50.9557 7.04514 50.9181 6.85446 50.9185 6.66196ZM60.9355 25.988C57.6905 25.988 55.6855 24.365 55.6855 21.818C55.6855 21.684 55.7755 21.593 55.9105 21.593H58.1635C58.2985 21.593 58.3885 21.683 58.3885 21.819C58.3885 22.855 59.2685 23.959 60.9355 23.959C62.4675 23.959 63.8195 23.306 63.8195 21.03V18.687H63.7745C63.2115 19.858 62.0615 20.895 60.2595 20.895C57.2845 20.895 55.4595 18.98 55.4595 15.397C55.4595 11.701 57.2395 9.46996 60.2595 9.46996C62.1515 9.46996 63.2115 10.462 63.7745 11.904H63.8195V9.92096C63.8195 9.78596 63.9095 9.69596 64.0445 9.69596H66.2985C66.4335 9.69596 66.5235 9.78596 66.5235 9.92096V20.985C66.5235 24.658 64.0445 25.988 60.9355 25.988ZM58.1635 15.17C58.1635 17.694 59.4035 18.866 61.0935 18.866C62.6475 18.866 63.8195 17.694 63.8195 15.17C63.8195 12.85 62.6475 11.497 61.0925 11.497C59.4025 11.497 58.1635 12.849 58.1635 15.17ZM70.2305 21.188C70.0381 21.1882 69.8475 21.1505 69.6697 21.077C69.4919 21.0034 69.3303 20.8955 69.1943 20.7594C69.0583 20.6233 68.9505 20.4617 68.8771 20.2838C68.8037 20.106 68.7661 19.9154 68.7665 19.723C68.7665 18.912 69.4195 18.259 70.2315 18.259C71.0415 18.259 71.6955 18.912 71.6955 19.723C71.6955 20.534 71.0415 21.188 70.2305 21.188ZM78.0155 21.188C75.3565 21.188 73.2835 18.98 73.2835 15.397C73.2835 11.837 75.3115 9.46996 78.0155 9.46996C80.0435 9.46996 81.1035 10.642 81.5755 12.4H81.6215V5.52496C81.6215 5.38996 81.7115 5.29996 81.8465 5.29996H83.9865C84.1225 5.29996 84.2125 5.38996 84.2125 5.52496V20.737C84.2125 20.872 84.1225 20.963 83.9875 20.963H81.8475C81.7115 20.963 81.6215 20.873 81.6215 20.737V18.642H81.5765C81.0575 20.174 79.9525 21.188 78.0155 21.188ZM75.9875 15.397C75.9875 17.875 77.2275 19.16 78.7815 19.16C80.3595 19.16 81.5085 17.875 81.5085 15.397C81.5085 12.85 80.3585 11.498 78.7815 11.498C77.2275 11.498 75.9875 12.85 75.9875 15.397ZM90.9835 21.188C87.6935 21.188 85.7335 19.002 85.7335 15.284C85.7335 12.084 87.6935 9.46996 90.9835 9.46996C94.1605 9.46996 96.0755 12.084 96.0755 15.577C96.0755 15.735 96.0085 15.825 95.8725 15.825H88.4365C88.5495 17.988 89.4735 19.16 91.0505 19.16C92.3575 19.16 93.0785 18.619 93.3945 17.65C93.4395 17.515 93.5295 17.447 93.6425 17.447H95.7605C95.9175 17.447 95.9855 17.537 95.9635 17.695C95.4445 19.655 93.8225 21.188 90.9835 21.188ZM88.4595 14.631H93.2815C93.2815 12.738 92.4925 11.498 90.9835 11.498C89.6315 11.498 88.6625 12.49 88.4595 14.631ZM100.416 20.962C100.303 20.962 100.213 20.918 100.168 20.782L95.9995 9.87597C95.9545 9.76297 95.9995 9.69596 96.1125 9.69596H98.6135C98.6815 9.69596 98.7495 9.71797 98.7715 9.83097L101.543 18.326H101.588L104.314 9.83097C104.337 9.71797 104.404 9.69596 104.472 9.69596H106.973C107.086 9.69596 107.131 9.76297 107.086 9.87597L102.94 20.782C102.895 20.918 102.805 20.962 102.692 20.962H100.416Z" fill="#131313"/>
</g>
</g>
<defs>
<clipPath id="clip0_1_1234">
<rect width="108" height="26" fill="white"/>
</clipPath>
<clipPath id="clip1_1_1234">
<rect width="108" height="26" fill="white"/>
</clipPath>
</defs>
</svg>
