<svg width="21" height="21" viewBox="0 0 21 21" fill="none" xmlns="http://www.w3.org/2000/svg">
<g clip-path="url(#clip0_1_1154)">
<g clip-path="url(#clip1_1_1154)">
<path d="M4.80161 13.2389C4.80003 13.7954 4.57827 14.3286 4.18478 14.7221C3.7913 15.1156 3.25808 15.3374 2.70161 15.3389C2.14497 15.3379 1.61138 15.1165 1.21749 14.7232C0.823608 14.3298 0.601459 13.7966 0.599609 13.2399C0.599609 12.0829 1.54461 11.1389 2.70061 11.1389H4.80161V13.2389ZM5.85961 13.2389C5.85961 12.0819 6.80461 11.1379 7.96161 11.1379C9.11761 11.1379 10.0616 12.0819 10.0616 13.2379V18.4999C10.0606 19.0567 9.839 19.5903 9.44543 19.9841C9.05186 20.3778 8.51833 20.5996 7.96161 20.6009C7.40497 20.5996 6.87149 20.378 6.47779 19.9845C6.08409 19.591 5.86219 19.0576 5.86061 18.5009V13.2399L5.85961 13.2389Z" fill="#E01E5A"/>
<path d="M7.96161 4.8021C7.40497 4.80078 6.87149 4.57914 6.47779 4.18563C6.08409 3.79211 5.86219 3.25874 5.86061 2.7021C5.86114 2.14529 6.08236 1.6114 6.47579 1.2174C6.86923 0.823401 7.40281 0.601421 7.95961 0.600098C9.11661 0.600098 10.0606 1.5451 10.0606 2.7011V4.8021H7.96161ZM7.96161 5.8601C9.11761 5.8601 10.0616 6.8051 10.0616 7.9621C10.06 8.51857 9.83827 9.05179 9.44478 9.44527C9.0513 9.83876 8.51808 10.0605 7.96161 10.0621H2.70161C2.14497 10.061 1.61138 9.83966 1.21749 9.44633C0.823608 9.05301 0.601459 8.51974 0.599609 7.9631C0.599609 6.8061 1.54461 5.8621 2.70061 5.8621H7.96061L7.96161 5.8601Z" fill="#36C5F0"/>
<path d="M16.3977 7.9621C16.3977 6.8051 17.3427 5.8611 18.4987 5.8611C19.6557 5.8611 20.5997 6.8051 20.5997 7.9611C20.5986 8.51791 20.3771 9.05165 19.9836 9.44556C19.59 9.83948 19.0565 10.0615 18.4997 10.0631H16.3977V7.9621ZM15.3397 7.9621C15.3397 9.1181 14.3947 10.0621 13.2377 10.0621C12.0817 10.0621 11.1377 9.1181 11.1377 7.9621V2.7021C11.1377 1.5451 12.0817 0.600098 13.2377 0.600098C14.3947 0.600098 15.3387 1.5451 15.3387 2.7011V7.9611L15.3397 7.9621Z" fill="#2EB67D"/>
<path d="M13.2377 16.3979C14.3947 16.3979 15.3387 17.3429 15.3387 18.4979C15.3377 19.0548 15.1161 19.5885 14.7226 19.9824C14.3291 20.3763 13.7955 20.5984 13.2387 20.5999C12.6818 20.5986 12.1481 20.3769 11.7542 19.9832C11.3603 19.5895 11.1383 19.0558 11.1367 18.4989V16.3979H13.2377ZM13.2377 15.3399C12.0817 15.3399 11.1377 14.3949 11.1377 13.2389C11.1377 12.0819 12.0817 11.1379 13.2377 11.1379H18.4997C19.6557 11.1379 20.6007 12.0819 20.6007 13.2379C20.5997 13.7949 20.378 14.3288 19.9842 14.7228C19.5905 15.1167 19.0567 15.3386 18.4997 15.3399H13.2397H13.2377Z" fill="#ECB22E"/>
</g>
</g>
<defs>
<clipPath id="clip0_1_1154">
<rect width="21" height="21" fill="white"/>
</clipPath>
<clipPath id="clip1_1_1154">
<rect width="21" height="21" fill="white"/>
</clipPath>
</defs>
</svg>
