<svg width="359" height="36" viewBox="0 0 359 36" fill="none" xmlns="http://www.w3.org/2000/svg">
<g clip-path="url(#clip0_1_32)">
<g clip-path="url(#clip1_1_32)">
<path d="M143.286 0.5H18C8.33502 0.5 0.5 8.33502 0.5 18C0.5 27.665 8.33502 35.5 18 35.5H143.286C152.951 35.5 160.786 27.665 160.786 18C160.786 8.33502 152.951 0.5 143.286 0.5Z" fill="white"/>
<path d="M31.606 13.293H32.3203L34.356 11.2573L34.456 10.393C33.2898 9.36366 31.8805 8.64862 30.3611 8.31542C28.8418 7.98222 27.2625 8.04186 25.7726 8.48869C24.2827 8.93552 22.9313 9.75479 21.8461 10.8691C20.7608 11.9835 19.9776 13.3561 19.5703 14.8573C19.7971 14.7643 20.0483 14.7492 20.2846 14.8144L24.356 14.143C24.356 14.143 24.5632 13.8001 24.6703 13.8215C25.5427 12.8634 26.7483 12.275 28.0403 12.1768C29.3323 12.0785 30.6131 12.4778 31.6203 13.293H31.606Z" fill="#EA4335"/>
<path d="M37.2582 14.857C36.7903 13.1339 35.8296 11.5849 34.4939 10.3999L31.6368 13.257C32.2322 13.7436 32.7094 14.359 33.0324 15.0569C33.3553 15.7547 33.5156 16.5168 33.5011 17.2856V17.7928C33.835 17.7928 34.1657 17.8585 34.4742 17.9863C34.7827 18.1141 35.063 18.3014 35.2991 18.5375C35.5353 18.7737 35.7226 19.054 35.8504 19.3625C35.9781 19.671 36.0439 20.0017 36.0439 20.3356C36.0439 20.6696 35.9781 21.0002 35.8504 21.3087C35.7226 21.6172 35.5353 21.8976 35.2991 22.1337C35.063 22.3698 34.7827 22.5571 34.4742 22.6849C34.1657 22.8127 33.835 22.8785 33.5011 22.8785H28.4153L27.9082 23.3928V26.4428L28.4153 26.9499H33.5011C34.9212 26.961 36.3072 26.5146 37.4541 25.6769C38.6009 24.8392 39.4476 23.6545 39.869 22.2983C40.2904 20.942 40.264 19.4861 39.7938 18.146C39.3236 16.8059 38.4346 15.6527 37.2582 14.857Z" fill="#4285F4"/>
<path d="M23.3229 26.9216H28.4086V22.8502H23.3229C22.9606 22.8501 22.6025 22.7721 22.2729 22.6216L21.5586 22.843L19.5086 24.8787L19.3301 25.593C20.4797 26.4611 21.8824 26.9278 23.3229 26.9216Z" fill="#34A853"/>
<path d="M23.3209 13.7139C21.9429 13.7221 20.6019 14.1606 19.4852 14.9679C18.3684 15.7753 17.5317 16.9113 17.092 18.2172C16.6522 19.5232 16.6313 20.9339 17.0322 22.2523C17.433 23.5707 18.2357 24.731 19.328 25.5711L22.278 22.6211C21.9031 22.4517 21.5749 22.1939 21.3216 21.8698C21.0682 21.5457 20.8973 21.165 20.8234 20.7603C20.7496 20.3556 20.775 19.939 20.8975 19.5463C21.0201 19.1536 21.236 18.7965 21.5269 18.5057C21.8178 18.2148 22.1749 17.9988 22.5676 17.8763C22.9603 17.7538 23.3768 17.7283 23.7815 17.8022C24.1862 17.8761 24.5669 18.047 24.891 18.3003C25.2151 18.5537 25.4729 18.8819 25.6423 19.2568L28.5923 16.3068C27.9731 15.4973 27.1751 14.8421 26.2606 14.3922C25.3461 13.9424 24.34 13.7103 23.3209 13.7139Z" fill="#FBBC05"/>
<path d="M53.7051 24.0784C52.8295 24.0896 51.9606 23.9239 51.1505 23.5913C50.3405 23.2587 49.6059 22.766 48.9908 22.1427C48.3563 21.5459 47.8528 20.8237 47.5122 20.022C47.1716 19.2203 47.0013 18.3566 47.0122 17.4856C47.0018 16.6146 47.1722 15.751 47.5128 14.9494C47.8534 14.1477 48.3566 13.4255 48.9908 12.8284C49.6029 12.1987 50.3361 11.6994 51.1463 11.3606C51.9565 11.0218 52.8269 10.8505 53.7051 10.857C54.5418 10.8459 55.3724 11.0011 56.1486 11.3138C56.9248 11.6265 57.6311 12.0904 58.2265 12.6784L56.9551 13.9713C56.0844 13.1298 54.9158 12.6675 53.7051 12.6856C53.077 12.6779 52.4542 12.8009 51.8763 13.0468C51.2983 13.2928 50.7778 13.6562 50.3479 14.1141C49.9011 14.5574 49.5486 15.0865 49.3117 15.6696C49.0748 16.2527 48.9583 16.8777 48.9694 17.507C48.9641 18.1291 49.0834 18.746 49.3201 19.3213C49.5569 19.8966 49.9063 20.4188 50.3479 20.857C51.2325 21.7385 52.4261 22.24 53.6748 22.2546C54.9235 22.2693 56.1286 21.796 57.0336 20.9356C57.5939 20.322 57.9377 19.5417 58.0122 18.7141H53.7265V16.8856H59.7908C59.8504 17.2538 59.8743 17.627 59.8622 17.9999C59.8999 18.7716 59.7807 19.5429 59.5119 20.2673C59.243 20.9916 58.83 21.6539 58.2979 22.2141C57.7063 22.8301 56.9915 23.3145 56.2002 23.6357C55.4088 23.9569 54.5586 24.1078 53.7051 24.0784ZM67.8051 22.8642C66.9912 23.6443 65.9074 24.0798 64.7801 24.0798C63.6527 24.0798 62.5689 23.6443 61.7551 22.8642C61.35 22.4714 61.031 21.9987 60.8182 21.4761C60.6055 20.9535 60.5037 20.3924 60.5194 19.8284C60.5042 19.2645 60.6062 18.7035 60.8189 18.181C61.0316 17.6585 61.3503 17.1857 61.7551 16.7927C62.5698 16.0142 63.6532 15.5798 64.7801 15.5798C65.9069 15.5798 66.9904 16.0142 67.8051 16.7927C68.2098 17.1857 68.5286 17.6585 68.7413 18.181C68.954 18.7035 69.056 19.2645 69.0408 19.8284C69.0555 20.393 68.9526 20.9544 68.7386 21.477C68.5246 21.9996 68.2043 22.472 67.7979 22.8642H67.8051ZM63.0908 21.6713C63.3073 21.9025 63.5689 22.0868 63.8594 22.2127C64.15 22.3387 64.4634 22.4037 64.7801 22.4037C65.0968 22.4037 65.4101 22.3387 65.7007 22.2127C65.9913 22.0868 66.2529 21.9025 66.4694 21.6713C66.7054 21.4273 66.8902 21.1386 67.0129 20.8221C67.1355 20.5056 67.1936 20.1677 67.1836 19.8284C67.1942 19.488 67.1364 19.1489 67.0137 18.8312C66.891 18.5134 66.7059 18.2235 66.4694 17.9784C66.25 17.7496 65.9866 17.5676 65.6951 17.4432C65.4036 17.3188 65.0899 17.2547 64.7729 17.2547C64.456 17.2547 64.1423 17.3188 63.8507 17.4432C63.5592 17.5676 63.2958 17.7496 63.0765 17.9784C62.8399 18.2235 62.6548 18.5134 62.5321 18.8312C62.4095 19.1489 62.3517 19.488 62.3622 19.8284C62.3532 20.1682 62.4124 20.5064 62.5363 20.8229C62.6602 21.1395 62.8463 21.4279 63.0836 21.6713H63.0908ZM77.1051 22.8642C76.2912 23.6443 75.2074 24.0798 74.0801 24.0798C72.9527 24.0798 71.8689 23.6443 71.0551 22.8642C70.65 22.4714 70.331 21.9987 70.1182 21.4761C69.9055 20.9535 69.8037 20.3924 69.8194 19.8284C69.8042 19.2645 69.9062 18.7035 70.1189 18.181C70.3316 17.6585 70.6503 17.1857 71.0551 16.7927C71.8689 16.0126 72.9527 15.577 74.0801 15.577C75.2074 15.577 76.2912 16.0126 77.1051 16.7927C77.5098 17.1857 77.8286 17.6585 78.0413 18.181C78.254 18.7035 78.356 19.2645 78.3408 19.8284C78.3564 20.3924 78.2546 20.9535 78.0419 21.4761C77.8292 21.9987 77.5101 22.4714 77.1051 22.8642ZM72.3908 21.6713C72.6073 21.9025 72.8689 22.0868 73.1594 22.2127C73.45 22.3387 73.7634 22.4037 74.0801 22.4037C74.3968 22.4037 74.7101 22.3387 75.0007 22.2127C75.2913 22.0868 75.5529 21.9025 75.7693 21.6713C76.0054 21.4273 76.1902 21.1386 76.3129 20.8221C76.4355 20.5056 76.4936 20.1677 76.4836 19.8284C76.4942 19.488 76.4364 19.1489 76.3137 18.8312C76.191 18.5134 76.0059 18.2235 75.7693 17.9784C75.55 17.7496 75.2866 17.5676 74.9951 17.4432C74.7036 17.3188 74.3899 17.2547 74.0729 17.2547C73.756 17.2547 73.4423 17.3188 73.1507 17.4432C72.8592 17.5676 72.5958 17.7496 72.3765 17.9784C72.1399 18.2235 71.9548 18.5134 71.8321 18.8312C71.7095 19.1489 71.6517 19.488 71.6622 19.8284C71.6532 20.1682 71.7124 20.5064 71.8363 20.8229C71.9602 21.1395 72.1463 21.4279 72.3836 21.6713H72.3908ZM83.2193 27.8927C82.3632 27.92 81.5236 27.6527 80.8408 27.1356C80.2345 26.6798 79.757 26.0743 79.4551 25.3784L81.0836 24.6999C81.2609 25.1157 81.5381 25.4813 81.8908 25.7642C82.2682 26.0684 82.7419 26.228 83.2265 26.2142C83.5338 26.2328 83.8415 26.1851 84.1287 26.0742C84.4159 25.9632 84.6758 25.7917 84.8908 25.5713C85.3211 25.0522 85.5336 24.3866 85.4836 23.7142V23.0999H85.4193C85.1472 23.4232 84.8034 23.6786 84.4153 23.846C84.0273 24.0134 83.6056 24.0881 83.1836 24.0642C82.6473 24.0658 82.1165 23.9562 81.6248 23.7422C81.133 23.5283 80.6909 23.2147 80.3265 22.8213C79.931 22.431 79.6189 21.9645 79.409 21.4501C79.199 20.9357 79.0956 20.384 79.1051 19.8284C79.0952 19.2696 79.1983 18.7146 79.4082 18.1967C79.6181 17.6787 79.9304 17.2085 80.3265 16.8141C80.69 16.4191 81.1318 16.1039 81.6236 15.8887C82.1155 15.6735 82.6467 15.563 83.1836 15.5641C83.638 15.5634 84.0869 15.6634 84.4979 15.857C84.8535 16.0123 85.1705 16.244 85.4265 16.5356H85.4908V15.857H87.2622V23.4642C87.3088 24.0659 87.2322 24.6709 87.0369 25.242C86.8416 25.8131 86.5318 26.3383 86.1265 26.7856C85.7404 27.1549 85.2843 27.4432 84.785 27.6333C84.2856 27.8235 83.7533 27.9117 83.2193 27.8927ZM83.3479 22.407C83.6529 22.4137 83.9557 22.3532 84.2347 22.2297C84.5136 22.1063 84.762 21.923 84.9622 21.6927C85.4029 21.1877 85.6353 20.534 85.6122 19.8642C85.6387 19.1829 85.4065 18.5169 84.9622 17.9999C84.7624 17.7692 84.514 17.5856 84.235 17.4622C83.9559 17.3387 83.653 17.2784 83.3479 17.2856C83.0346 17.2791 82.7235 17.3395 82.4353 17.4627C82.1471 17.5858 81.8884 17.769 81.6765 17.9999C81.204 18.4984 80.9473 19.1632 80.9622 19.8499C80.9549 20.1867 81.0143 20.5216 81.1369 20.8354C81.2595 21.1492 81.4428 21.4357 81.6765 21.6784C81.8874 21.9116 82.1455 22.0971 82.4337 22.2227C82.7219 22.3484 83.0336 22.4112 83.3479 22.407ZM90.4122 11.3356V23.8213H88.5479V11.3356H90.4122ZM95.5265 24.0784C94.9682 24.0928 94.4129 23.9917 93.8955 23.7815C93.378 23.5714 92.9095 23.2566 92.5193 22.857C92.1234 22.4603 91.8123 21.9873 91.6047 21.4667C91.3972 20.9461 91.2977 20.3887 91.3122 19.8284C91.2911 19.2668 91.3833 18.7066 91.5833 18.1814C91.7833 17.6562 92.0871 17.1766 92.4765 16.7713C92.8434 16.3845 93.2871 16.0786 93.7791 15.8732C94.2711 15.6677 94.8006 15.5674 95.3336 15.5784C95.8238 15.5733 96.3099 15.668 96.7622 15.857C97.1696 16.0215 97.5409 16.2641 97.8551 16.5713C98.1248 16.8317 98.3644 17.1216 98.5693 17.4356C98.7351 17.7007 98.8762 17.9804 98.9908 18.2713L99.1836 18.757L93.4693 21.107C93.6422 21.5041 93.9312 21.8395 94.2985 22.069C94.6657 22.2985 95.0938 22.4114 95.5265 22.3927C95.9474 22.3939 96.3615 22.2859 96.7283 22.0793C97.0951 21.8728 97.4021 21.5747 97.6193 21.2141L99.0479 22.1784C98.6833 22.7 98.2168 23.1423 97.6765 23.4784C97.0339 23.8844 96.2864 24.093 95.5265 24.0784ZM93.1408 19.6999L96.9408 18.1213C96.8237 17.843 96.6143 17.6134 96.3479 17.4713C96.0496 17.3028 95.7119 17.2166 95.3693 17.2213C94.788 17.2363 94.2362 17.4802 93.8336 17.8999C93.5927 18.1304 93.4057 18.4112 93.286 18.7224C93.1662 19.0336 93.1166 19.3673 93.1408 19.6999Z" fill="#5F6368"/>
<path d="M108.95 24.0787C108.157 24.0923 107.37 23.9457 106.635 23.6475C105.9 23.3493 105.233 22.9056 104.674 22.3433C104.115 21.7809 103.676 21.1113 103.382 20.3748C103.088 19.6383 102.946 18.85 102.964 18.0572C102.946 17.2645 103.088 16.4762 103.382 15.7397C103.676 15.0031 104.115 14.3336 104.674 13.7712C105.233 13.2088 105.9 12.7652 106.635 12.467C107.37 12.1688 108.157 12.0221 108.95 12.0358C109.753 12.0107 110.55 12.1673 111.284 12.4938C112.017 12.8204 112.668 13.3084 113.186 13.9215L112.157 14.9215C111.777 14.4429 111.289 14.0608 110.733 13.8064C110.177 13.5519 109.568 13.4323 108.957 13.4572C108.369 13.444 107.784 13.5498 107.238 13.7683C106.692 13.9868 106.196 14.3134 105.779 14.7287C105.345 15.1644 105.007 15.685 104.784 16.2578C104.562 16.8306 104.46 17.4433 104.486 18.0572C104.46 18.6712 104.562 19.2838 104.784 19.8566C105.007 20.4295 105.345 20.9501 105.779 21.3858C106.196 21.801 106.692 22.1277 107.238 22.3462C107.784 22.5647 108.369 22.6705 108.957 22.6572C109.64 22.6649 110.316 22.5186 110.934 22.2292C111.552 21.9399 112.097 21.5148 112.529 20.9858L113.557 22.0144C113.019 22.6584 112.343 23.1734 111.579 23.5215C110.755 23.9017 109.857 24.0921 108.95 24.0787Z" fill="#5F6368"/>
<path d="M116.322 23.8218H114.844V12.2861H116.322V23.8218Z" fill="#5F6368"/>
<path d="M118.737 16.8785C119.511 16.1091 120.559 15.6772 121.651 15.6772C122.743 15.6772 123.79 16.1091 124.565 16.8785C124.944 17.2785 125.24 17.7495 125.436 18.2644C125.632 18.7792 125.725 19.3278 125.708 19.8785C125.725 20.4292 125.632 20.9778 125.436 21.4926C125.24 22.0075 124.944 22.4785 124.565 22.8785C123.79 23.6479 122.743 24.0797 121.651 24.0797C120.559 24.0797 119.511 23.6479 118.737 22.8785C118.358 22.4785 118.062 22.0075 117.866 21.4926C117.669 20.9778 117.577 20.4292 117.594 19.8785C117.577 19.3278 117.669 18.7792 117.866 18.2644C118.062 17.7495 118.358 17.2785 118.737 16.8785ZM119.837 21.9499C120.07 22.1961 120.35 22.3922 120.662 22.5263C120.973 22.6603 121.308 22.7294 121.647 22.7294C121.986 22.7294 122.322 22.6603 122.633 22.5263C122.944 22.3922 123.225 22.1961 123.458 21.9499C123.716 21.6726 123.917 21.3467 124.048 20.991C124.18 20.6354 124.239 20.2572 124.222 19.8785C124.239 19.4998 124.18 19.1216 124.048 18.766C123.917 18.4103 123.716 18.0844 123.458 17.8071C123.225 17.5609 122.944 17.3648 122.633 17.2307C122.322 17.0967 121.986 17.0276 121.647 17.0276C121.308 17.0276 120.973 17.0967 120.662 17.2307C120.35 17.3648 120.07 17.5609 119.837 17.8071C119.578 18.0844 119.377 18.4103 119.246 18.766C119.115 19.1216 119.056 19.4998 119.072 19.8785C119.058 20.2565 119.119 20.6336 119.251 20.988C119.383 21.3424 119.585 21.6669 119.844 21.9428L119.837 21.9499Z" fill="#5F6368"/>
<path d="M133.899 23.8213H132.471V22.7284H132.428C132.174 23.1435 131.814 23.4836 131.385 23.7141C130.94 23.972 130.435 24.1075 129.921 24.107C129.503 24.1355 129.085 24.0694 128.697 23.9136C128.308 23.7577 127.96 23.5162 127.678 23.207C127.137 22.5226 126.865 21.6638 126.914 20.7927V15.9355H128.392V20.5213C128.392 21.9927 129.042 22.7284 130.342 22.7284C130.631 22.7374 130.918 22.6773 131.179 22.553C131.44 22.4288 131.667 22.244 131.842 22.0141C132.226 21.5284 132.43 20.9256 132.421 20.307V15.9355H133.899V23.8213Z" fill="#5F6368"/>
<path d="M138.922 24.0785C138.42 24.0802 137.924 23.9731 137.468 23.7647C137.011 23.5563 136.606 23.2516 136.279 22.8714C135.538 22.0534 135.142 20.9814 135.172 19.8785C135.142 18.7756 135.538 17.7036 136.279 16.8856C136.606 16.5054 137.011 16.2007 137.468 15.9923C137.924 15.7839 138.42 15.6768 138.922 15.6785C139.483 15.6696 140.039 15.8023 140.536 16.0642C140.973 16.2841 141.343 16.6171 141.607 17.0285H141.672L141.607 15.9356V12.2856H143.086V23.8214H141.657V22.7285H141.593C141.328 23.1399 140.958 23.4729 140.522 23.6928C140.029 23.9524 139.479 24.085 138.922 24.0785ZM139.164 22.7285C139.499 22.7334 139.83 22.6671 140.137 22.5341C140.443 22.4011 140.718 22.2044 140.943 21.9571C141.445 21.3852 141.702 20.6383 141.657 19.8785C141.702 19.1187 141.445 18.3718 140.943 17.7999C140.717 17.5513 140.441 17.3526 140.133 17.2166C139.826 17.0807 139.493 17.0105 139.157 17.0105C138.821 17.0105 138.488 17.0807 138.181 17.2166C137.873 17.3526 137.598 17.5513 137.372 17.7999C137.122 18.0812 136.93 18.409 136.808 18.7645C136.685 19.1199 136.634 19.4961 136.657 19.8714C136.634 20.2466 136.685 20.6228 136.808 20.9783C136.93 21.3337 137.122 21.6615 137.372 21.9428C137.597 22.1945 137.873 22.395 138.183 22.5306C138.492 22.6661 138.827 22.7336 139.164 22.7285Z" fill="#5F6368"/>
<path d="M143.286 0.5H18C8.33502 0.5 0.5 8.33502 0.5 18C0.5 27.665 8.33502 35.5 18 35.5H143.286C152.951 35.5 160.786 27.665 160.786 18C160.786 8.33502 152.951 0.5 143.286 0.5Z" stroke="#E8E8E8"/>
<path d="M216.692 0.5H187.285C177.62 0.5 169.785 8.33502 169.785 18C169.785 27.665 177.62 35.5 187.285 35.5H216.692C226.357 35.5 234.192 27.665 234.192 18C234.192 8.33502 226.357 0.5 216.692 0.5Z" fill="white"/>
<mask id="mask0_1_32" style="mask-type:luminance" maskUnits="userSpaceOnUse" x="185" y="8" width="34" height="20">
<path d="M218.692 8H185.285V28H218.692V8Z" fill="white"/>
</mask>
<g mask="url(#mask0_1_32)">
<path d="M194.779 15.2969C194.779 15.7035 194.823 16.0332 194.9 16.2749C194.988 16.5167 195.098 16.7804 195.252 17.0661C195.307 17.1541 195.328 17.242 195.328 17.3189C195.328 17.4288 195.263 17.5387 195.12 17.6486L194.427 18.1101C194.328 18.176 194.23 18.209 194.142 18.209C194.032 18.209 193.922 18.1541 193.812 18.0552C193.658 17.8903 193.526 17.7145 193.416 17.5387C193.307 17.3519 193.197 17.1431 193.076 16.8903C192.219 17.9013 191.142 18.4068 189.845 18.4068C188.922 18.4068 188.186 18.1431 187.647 17.6156C187.109 17.0881 186.834 16.3848 186.834 15.5057C186.834 14.5716 187.164 13.8134 187.834 13.242C188.504 12.6705 189.394 12.3848 190.526 12.3848C190.9 12.3848 191.285 12.4178 191.691 12.4727C192.098 12.5277 192.515 12.6156 192.955 12.7145V11.9123C192.955 11.0771 192.779 10.4947 192.438 10.1541C192.087 9.8134 191.493 9.64857 190.647 9.64857C190.263 9.64857 189.867 9.69252 189.46 9.79142C189.054 9.89032 188.658 10.0112 188.274 10.165C188.098 10.242 187.966 10.2859 187.889 10.3079C187.812 10.3299 187.757 10.3409 187.713 10.3409C187.559 10.3409 187.482 10.231 187.482 10.0002V9.46175C187.482 9.28593 187.504 9.15406 187.559 9.07714C187.614 9.00021 187.713 8.92329 187.867 8.84637C188.252 8.64857 188.713 8.48373 189.252 8.35186C189.79 8.20901 190.361 8.14307 190.966 8.14307C192.274 8.14307 193.23 8.43977 193.845 9.03318C194.449 9.62659 194.757 10.5277 194.757 11.7365V15.2969H194.779ZM190.318 16.9672C190.68 16.9672 191.054 16.9013 191.449 16.7694C191.845 16.6376 192.197 16.3958 192.493 16.0661C192.669 15.8574 192.801 15.6266 192.867 15.3629C192.933 15.0991 192.977 14.7804 192.977 14.4068V13.9453C192.658 13.8683 192.318 13.8024 191.966 13.7585C191.614 13.7145 191.274 13.6925 190.933 13.6925C190.197 13.6925 189.658 13.8354 189.296 14.1321C188.933 14.4288 188.757 14.8464 188.757 15.3958C188.757 15.9123 188.889 16.2969 189.164 16.5607C189.427 16.8354 189.812 16.9672 190.318 16.9672ZM199.142 18.1541C198.944 18.1541 198.812 18.1211 198.724 18.0442C198.636 17.9782 198.559 17.8244 198.493 17.6156L195.911 9.12109C195.845 8.90131 195.812 8.75846 195.812 8.68153C195.812 8.50571 195.9 8.40681 196.076 8.40681H197.153C197.361 8.40681 197.504 8.43978 197.581 8.5167C197.669 8.58263 197.735 8.73648 197.801 8.94527L199.647 16.22L201.361 8.94527C201.416 8.72549 201.482 8.58263 201.57 8.5167C201.658 8.45076 201.812 8.40681 202.01 8.40681H202.889C203.098 8.40681 203.241 8.43978 203.328 8.5167C203.416 8.58263 203.493 8.73648 203.537 8.94527L205.274 16.3079L207.175 8.94527C207.241 8.72549 207.318 8.58263 207.394 8.5167C207.482 8.45076 207.625 8.40681 207.823 8.40681H208.845C209.021 8.40681 209.12 8.49472 209.12 8.68153C209.12 8.73648 209.109 8.79142 209.098 8.85736C209.087 8.92329 209.065 9.0112 209.021 9.13208L206.372 17.6266C206.307 17.8464 206.23 17.9892 206.142 18.0552C206.054 18.1211 205.911 18.165 205.724 18.165H204.779C204.57 18.165 204.427 18.1321 204.339 18.0552C204.252 17.9782 204.175 17.8354 204.131 17.6156L202.427 10.5277L200.735 17.6046C200.68 17.8244 200.614 17.9672 200.526 18.0442C200.438 18.1211 200.285 18.1541 200.087 18.1541H199.142ZM213.263 18.4508C212.691 18.4508 212.12 18.3848 211.57 18.253C211.021 18.1211 210.592 17.9782 210.307 17.8134C210.131 17.7145 210.01 17.6046 209.966 17.5057C209.922 17.4068 209.9 17.2969 209.9 17.198V16.6376C209.9 16.4068 209.988 16.2969 210.153 16.2969C210.219 16.2969 210.285 16.3079 210.35 16.3299C210.416 16.3519 210.515 16.3958 210.625 16.4398C210.999 16.6046 211.405 16.7365 211.834 16.8244C212.274 16.9123 212.702 16.9563 213.142 16.9563C213.834 16.9563 214.372 16.8354 214.746 16.5936C215.12 16.3519 215.317 16.0002 215.317 15.5497C215.317 15.242 215.219 14.9892 215.021 14.7804C214.823 14.5716 214.449 14.3848 213.911 14.209L212.318 13.7145C211.515 13.4618 210.922 13.0881 210.559 12.5936C210.197 12.1101 210.01 11.5716 210.01 11.0002C210.01 10.5387 210.109 10.1321 210.307 9.78043C210.504 9.42879 210.768 9.12109 211.098 8.87934C211.427 8.62659 211.801 8.43978 212.241 8.30791C212.68 8.17604 213.142 8.12109 213.625 8.12109C213.867 8.12109 214.12 8.13208 214.361 8.16505C214.614 8.19802 214.845 8.24197 215.076 8.28593C215.296 8.34087 215.504 8.39582 215.702 8.46175C215.9 8.52769 216.054 8.59362 216.164 8.65956C216.318 8.74747 216.427 8.83538 216.493 8.93428C216.559 9.02219 216.592 9.14307 216.592 9.29692V9.8134C216.592 10.0442 216.504 10.165 216.339 10.165C216.252 10.165 216.109 10.1211 215.922 10.0332C215.296 9.74747 214.592 9.60461 213.812 9.60461C213.186 9.60461 212.691 9.70351 212.35 9.9123C212.01 10.1211 211.834 10.4398 211.834 10.8903C211.834 11.198 211.944 11.4618 212.164 11.6705C212.383 11.8793 212.79 12.0881 213.372 12.2749L214.933 12.7694C215.724 13.0222 216.296 13.3738 216.636 13.8244C216.977 14.2749 217.142 14.7914 217.142 15.3629C217.142 15.8354 217.043 16.264 216.856 16.6376C216.658 17.0112 216.394 17.3409 216.054 17.6046C215.713 17.8793 215.307 18.0771 214.834 18.22C214.339 18.3738 213.823 18.4508 213.263 18.4508Z" fill="#252F3E"/>
<path fill-rule="evenodd" clip-rule="evenodd" d="M215.338 23.7913C211.723 26.4617 206.47 27.8793 201.954 27.8793C195.624 27.8793 189.921 25.5386 185.613 21.6485C185.273 21.3408 185.58 20.9232 185.987 21.165C190.646 23.8683 196.393 25.5056 202.338 25.5056C206.349 25.5056 210.756 24.6705 214.811 22.9562C215.415 22.6815 215.932 23.3518 215.338 23.7913Z" fill="#FF9900"/>
<path fill-rule="evenodd" clip-rule="evenodd" d="M216.845 22.0772C216.384 21.4838 213.79 21.7915 212.615 21.9343C212.263 21.9783 212.208 21.6706 212.527 21.4398C214.593 19.9893 217.988 20.4068 218.384 20.8904C218.779 21.3849 218.274 24.7805 216.34 26.4068C216.043 26.6596 215.757 26.5277 215.889 26.1981C216.329 25.1101 217.307 22.6596 216.845 22.0772Z" fill="#FF9900"/>
</g>
<path d="M216.692 0.5H187.285C177.62 0.5 169.785 8.33502 169.785 18C169.785 27.665 177.62 35.5 187.285 35.5H216.692C226.357 35.5 234.192 27.665 234.192 18C234.192 8.33502 226.357 0.5 216.692 0.5Z" stroke="#E8E8E8"/>
<path d="M278.691 0.5H260.691C251.026 0.5 243.191 8.33502 243.191 18C243.191 27.665 251.026 35.5 260.691 35.5H278.691C288.356 35.5 296.191 27.665 296.191 18C296.191 8.33502 288.356 0.5 278.691 0.5Z" fill="white"/>
<path d="M275.002 20.8096H265.54C265.452 20.8095 265.366 20.8359 265.293 20.8853C265.221 20.9348 265.164 21.005 265.132 21.0868C265.1 21.1687 265.093 21.2583 265.112 21.3441C265.132 21.4299 265.177 21.5079 265.241 21.5679L271.321 27.243C271.498 27.4081 271.731 27.4999 271.973 27.4999H277.331L275.002 20.8096Z" fill="#0078D4"/>
<path d="M278.691 0.5H260.691C251.026 0.5 243.191 8.33502 243.191 18C243.191 27.665 251.026 35.5 260.691 35.5H278.691C288.356 35.5 296.191 27.665 296.191 18C296.191 8.33502 288.356 0.5 278.691 0.5Z" stroke="#E8E8E8"/>
<path d="M340.691 0.5H322.691C313.026 0.5 305.191 8.33502 305.191 18C305.191 27.665 313.026 35.5 322.691 35.5H340.691C350.356 35.5 358.191 27.665 358.191 18C358.191 8.33502 350.356 0.5 340.691 0.5Z" fill="white"/>
<path d="M331.693 28.9999V24.734C336.208 24.734 339.713 20.2561 337.98 15.5037C337.343 13.7575 335.934 12.348 334.175 11.7118C329.423 9.99049 324.945 13.483 324.945 17.9984H320.691C320.691 10.8013 327.652 5.18823 335.198 7.5457C338.491 8.581 341.123 11.2004 342.146 14.4934C344.503 22.0398 338.89 28.9999 331.693 28.9999Z" fill="#0080FF"/>
<path fill-rule="evenodd" clip-rule="evenodd" d="M331.707 24.7583H327.453V20.5049H331.707V24.7583Z" fill="#0080FF"/>
<path fill-rule="evenodd" clip-rule="evenodd" d="M327.451 28.0143H324.195V24.7588H327.451V28.0143Z" fill="#0080FF"/>
<path fill-rule="evenodd" clip-rule="evenodd" d="M324.195 24.759H321.463V22.0273H324.195V24.759Z" fill="#0080FF"/>
<path d="M340.691 0.5H322.691C313.026 0.5 305.191 8.33502 305.191 18C305.191 27.665 313.026 35.5 322.691 35.5H340.691C350.356 35.5 358.191 27.665 358.191 18C358.191 8.33502 350.356 0.5 340.691 0.5Z" stroke="#E8E8E8"/>
</g>
</g>
<defs>
<clipPath id="clip0_1_32">
<rect width="359" height="36" fill="white"/>
</clipPath>
<clipPath id="clip1_1_32">
<rect width="359" height="36" fill="white"/>
</clipPath>
</defs>
</svg>
