<svg width="116" height="28" viewBox="0 0 116 28" fill="none" xmlns="http://www.w3.org/2000/svg">
<g clip-path="url(#clip0_1_1176)">
<path fill-rule="evenodd" clip-rule="evenodd" d="M0.692383 26.526C0.692383 27.34 1.35238 28 2.16638 28H8.06038C8.87338 28 9.53338 27.34 9.53338 26.526V23.47C9.53338 22.656 10.1934 21.996 11.0074 21.996H11.8534C12.6674 21.996 13.3274 21.336 13.3274 20.522V16.838C13.3274 16.024 12.6674 15.364 11.8534 15.364H8.17038C7.35638 15.364 6.69638 16.024 6.69638 16.838V17.684C6.69638 18.498 6.03638 19.158 5.22338 19.158H2.16638C1.35238 19.158 0.692383 19.818 0.692383 20.632V26.526ZM9.53438 5.267C9.53438 6.081 10.1944 6.741 11.0084 6.741H11.8544C12.6684 6.741 13.3284 7.401 13.3284 8.214V11.162C13.3284 11.976 12.6684 12.635 11.8544 12.635H8.90738C8.09338 12.635 7.43338 11.975 7.43338 11.162V10.316C7.43338 9.502 6.77338 8.842 5.95938 8.842H2.16638C1.35238 8.842 0.692383 8.182 0.692383 7.369V1.474C0.692383 0.66 1.35238 0 2.16638 0H8.06038C8.87438 0 9.53438 0.66 9.53438 1.474V5.267ZM21.9514 10.316C21.9514 9.502 22.6114 8.842 23.4254 8.842H27.2184C28.0324 8.842 28.6924 8.182 28.6924 7.369V1.474C28.6924 0.66 28.0324 0 27.2184 0H21.3244C20.5104 0 19.8504 0.66 19.8504 1.474V5.267C19.8504 6.081 19.1904 6.741 18.3764 6.741H17.5304C16.7164 6.741 16.0564 7.401 16.0564 8.214V11.162C16.0564 11.976 16.7164 12.635 17.5304 12.635H20.4784C21.2914 12.635 21.9514 11.975 21.9514 11.162V10.316ZM28.6914 26.526C28.6914 27.34 28.0324 28 27.2184 28H21.3234C20.5094 28 19.8504 27.34 19.8504 26.526V22.733C19.8504 21.919 19.1904 21.259 18.3764 21.259H17.5304C16.7164 21.259 16.0574 20.599 16.0574 19.786V16.838C16.0574 16.024 16.7174 15.365 17.5304 15.365H20.4784C21.2914 15.365 21.9514 16.025 21.9514 16.838V17.684C21.9514 18.498 22.6114 19.158 23.4254 19.158H27.2184C28.0324 19.158 28.6924 19.818 28.6924 20.632L28.6914 26.526Z" fill="white"/>
<path d="M39.845 22.5749C39.7 22.5749 39.627 22.4779 39.627 22.3569V5.82991C39.627 5.68391 39.7 5.58691 39.845 5.58691H48.412C51.032 5.58691 53.192 7.47991 53.192 10.6099C53.192 13.5469 51.639 15.2209 49.552 15.6579L53.338 22.2829C53.435 22.4529 53.362 22.5739 53.168 22.5739H50.57C50.511 22.5734 50.4531 22.5575 50.4022 22.5277C50.3514 22.4978 50.3092 22.4552 50.28 22.4039L46.494 15.7789H42.538V22.3309C42.538 22.4769 42.441 22.5739 42.295 22.5739H39.845V22.5749ZM42.539 13.4259H46.786C48.63 13.4259 50.28 12.9409 50.28 10.6599C50.28 8.40291 48.533 7.94191 46.786 7.94191H42.539V13.4259ZM55.837 22.5749C55.691 22.5749 55.57 22.4779 55.57 22.3319V10.6839C55.57 10.5389 55.691 10.4419 55.837 10.4419H58.094C58.239 10.4419 58.361 10.5389 58.361 10.6839V22.3319C58.361 22.4779 58.24 22.5749 58.094 22.5749H55.837ZM55.4 7.17491C55.4 6.30091 56.104 5.59791 56.978 5.59791C57.851 5.59791 58.555 6.30091 58.555 7.17491C58.555 8.04891 57.851 8.75191 56.978 8.75191C56.7707 8.75244 56.5653 8.71202 56.3737 8.63297C56.1821 8.55391 56.0079 8.43779 55.8613 8.29126C55.7147 8.14473 55.5985 7.97068 55.5193 7.77911C55.4401 7.58753 55.3996 7.3822 55.4 7.17491ZM66.187 27.9869C62.693 27.9869 60.533 26.2389 60.533 23.4969C60.533 23.3519 60.63 23.2549 60.775 23.2549H63.202C63.348 23.2549 63.445 23.3519 63.445 23.4969C63.445 24.6129 64.391 25.8019 66.187 25.8019C67.837 25.8019 69.293 25.0989 69.293 22.6479V20.1239H69.245C68.638 21.3859 67.4 22.5019 65.459 22.5019C62.256 22.5019 60.29 20.4399 60.29 16.5819C60.29 12.6019 62.207 10.1989 65.459 10.1989C67.497 10.1989 68.638 11.2669 69.245 12.8189H69.293V10.6839C69.293 10.5389 69.39 10.4419 69.536 10.4419H71.963C72.108 10.4419 72.205 10.5389 72.205 10.6839V22.5999C72.205 26.5559 69.535 27.9879 66.187 27.9879V27.9869ZM63.202 16.3379C63.202 19.0559 64.537 20.3179 66.357 20.3179C68.031 20.3179 69.293 19.0559 69.293 16.3379C69.293 13.8379 68.031 12.3829 66.357 12.3829C64.537 12.3829 63.202 13.8389 63.202 16.3379ZM76.198 22.8179C75.9907 22.8183 75.7853 22.7778 75.5938 22.6986C75.4022 22.6194 75.2281 22.5032 75.0816 22.3566C74.9351 22.2099 74.819 22.0358 74.7399 21.8442C74.6609 21.6526 74.6204 21.4472 74.621 21.2399C74.621 20.3669 75.325 19.6629 76.198 19.6629C77.072 19.6629 77.776 20.3669 77.776 21.2399C77.776 22.1139 77.072 22.8179 76.198 22.8179ZM84.582 22.8179C81.718 22.8179 79.486 20.4399 79.486 16.5809C79.486 12.7469 81.67 10.1989 84.582 10.1989C86.766 10.1989 87.906 11.4609 88.416 13.3539H88.464V5.94991C88.464 5.80391 88.561 5.70691 88.707 5.70691H91.012C91.158 5.70691 91.255 5.80391 91.255 5.94991V22.3319C91.255 22.4779 91.158 22.5749 91.012 22.5749H88.707C88.561 22.5749 88.464 22.4779 88.464 22.3319V20.0759H88.416C87.858 21.7259 86.669 22.8179 84.582 22.8179ZM82.398 16.5809C82.398 19.2509 83.732 20.6339 85.407 20.6339C87.1049 20.6339 88.343 19.2499 88.343 16.5809C88.343 13.8389 87.1049 12.3829 85.407 12.3829C83.732 12.3829 82.398 13.8389 82.398 16.5809ZM98.546 22.8179C95.003 22.8179 92.892 20.4639 92.892 16.4599C92.892 13.0139 95.004 10.1989 98.546 10.1989C101.968 10.1989 104.031 13.0139 104.031 16.7749C104.031 16.9449 103.958 17.0419 103.812 17.0419H95.804C95.926 19.3719 96.921 20.6339 98.619 20.6339C100.027 20.6339 100.803 20.0509 101.143 19.0079C101.192 18.8619 101.289 18.7889 101.41 18.7889H103.691C103.861 18.7889 103.934 18.8869 103.909 19.0559C103.351 21.1679 101.604 22.8179 98.546 22.8179ZM95.828 15.7559H101.022C101.022 13.7179 100.172 12.3829 98.546 12.3829C97.09 12.3829 96.046 13.4509 95.828 15.7559ZM108.705 22.5749C108.584 22.5749 108.487 22.5259 108.438 22.3809L103.949 10.6359C103.901 10.5139 103.949 10.4419 104.07 10.4419H106.764C106.837 10.4419 106.91 10.4659 106.934 10.5869L109.919 19.7359H109.967L112.904 10.5869C112.928 10.4659 113.001 10.4419 113.073 10.4419H115.767C115.888 10.4419 115.937 10.5139 115.888 10.6359L111.423 22.3809C111.375 22.5259 111.278 22.5749 111.156 22.5749H108.705Z" fill="white"/>
</g>
<defs>
<clipPath id="clip0_1_1176">
<rect width="116" height="28" fill="white"/>
</clipPath>
</defs>
</svg>
